<svg id="visual" viewBox="0 0 1920 1080" width="1920" height="1080" xmlns="http://www.w3.org/2000/svg" xmlns:xlink="http://www.w3.org/1999/xlink" version="1.1"><rect x="0" y="0" width="1920" height="1080" fill="#FFFFFF"></rect><path d="M0 802L45.7 808.7C91.3 815.3 182.7 828.7 274.2 842.7C365.7 856.7 457.3 871.3 548.8 868.3C640.3 865.3 731.7 844.7 823 842.5C914.3 840.3 1005.7 856.7 1097 871.7C1188.3 886.7 1279.7 900.3 1371.2 893.7C1462.7 887 1554.3 860 1645.8 859.7C1737.3 859.3 1828.7 885.7 1874.3 898.8L1920 912L1920 1081L1874.3 1081C1828.7 1081 1737.3 1081 1645.8 1081C1554.3 1081 1462.7 1081 1371.2 1081C1279.7 1081 1188.3 1081 1097 1081C1005.7 1081 914.3 1081 823 1081C731.7 1081 640.3 1081 548.8 1081C457.3 1081 365.7 1081 274.2 1081C182.7 1081 91.3 1081 45.7 1081L0 1081Z" fill="#bde1ff"></path><path d="M0 887L45.7 881C91.3 875 182.7 863 274.2 859.7C365.7 856.3 457.3 861.7 548.8 875.8C640.3 890 731.7 913 823 922.3C914.3 931.7 1005.7 927.3 1097 928.5C1188.3 929.7 1279.7 936.3 1371.2 924C1462.7 911.7 1554.3 880.3 1645.8 881C1737.3 881.7 1828.7 914.3 1874.3 930.7L1920 947L1920 1081L1874.3 1081C1828.7 1081 1737.3 1081 1645.8 1081C1554.3 1081 1462.7 1081 1371.2 1081C1279.7 1081 1188.3 1081 1097 1081C1005.7 1081 914.3 1081 823 1081C731.7 1081 640.3 1081 548.8 1081C457.3 1081 365.7 1081 274.2 1081C182.7 1081 91.3 1081 45.7 1081L0 1081Z" fill="#89c6ff"></path><path d="M0 899L45.7 901.8C91.3 904.7 182.7 910.3 274.2 921.7C365.7 933 457.3 950 548.8 954.7C640.3 959.3 731.7 951.7 823 954.2C914.3 956.7 1005.7 969.3 1097 968.8C1188.3 968.3 1279.7 954.7 1371.2 941.3C1462.7 928 1554.3 915 1645.8 908.8C1737.3 902.7 1828.7 903.3 1874.3 903.7L1920 904L1920 1081L1874.3 1081C1828.7 1081 1737.3 1081 1645.8 1081C1554.3 1081 1462.7 1081 1371.2 1081C1279.7 1081 1188.3 1081 1097 1081C1005.7 1081 914.3 1081 823 1081C731.7 1081 640.3 1081 548.8 1081C457.3 1081 365.7 1081 274.2 1081C182.7 1081 91.3 1081 45.7 1081L0 1081Z" fill="#52a9ff"></path><path d="M0 987L45.7 993.3C91.3 999.7 182.7 1012.3 274.2 1015.2C365.7 1018 457.3 1011 548.8 1003C640.3 995 731.7 986 823 985.3C914.3 984.7 1005.7 992.3 1097 993.5C1188.3 994.7 1279.7 989.3 1371.2 992.5C1462.7 995.7 1554.3 1007.3 1645.8 1007.5C1737.3 1007.7 1828.7 996.3 1874.3 990.7L1920 985L1920 1081L1874.3 1081C1828.7 1081 1737.3 1081 1645.8 1081C1554.3 1081 1462.7 1081 1371.2 1081C1279.7 1081 1188.3 1081 1097 1081C1005.7 1081 914.3 1081 823 1081C731.7 1081 640.3 1081 548.8 1081C457.3 1081 365.7 1081 274.2 1081C182.7 1081 91.3 1081 45.7 1081L0 1081Z" fill="#0a8aff"></path><path d="M0 1018L45.7 1023.2C91.3 1028.3 182.7 1038.7 274.2 1036.3C365.7 1034 457.3 1019 548.8 1013.8C640.3 1008.7 731.7 1013.3 823 1011.7C914.3 1010 1005.7 1002 1097 1006.2C1188.3 1010.3 1279.7 1026.7 1371.2 1036.2C1462.7 1045.7 1554.3 1048.3 1645.8 1040C1737.3 1031.7 1828.7 1012.3 1874.3 1002.7L1920 993L1920 1081L1874.3 1081C1828.7 1081 1737.3 1081 1645.8 1081C1554.3 1081 1462.7 1081 1371.2 1081C1279.7 1081 1188.3 1081 1097 1081C1005.7 1081 914.3 1081 823 1081C731.7 1081 640.3 1081 548.8 1081C457.3 1081 365.7 1081 274.2 1081C182.7 1081 91.3 1081 45.7 1081L0 1081Z" fill="#0066ff"></path></svg>